<mxfile host="www.draw.io" modified="2020-02-22T17:54:47.585Z" agent="Mozilla/5.0 (Windows NT 10.0; Win64; x64) AppleWebKit/537.36 (KHTML, like Gecko) Chrome/80.0.3987.116 Safari/537.36" etag="_4dRclzlW6UeMNbE2lne" version="12.7.4" type="github">
  <diagram id="KFb1uY-G-l7kQ8qVlv97" name="Page-1">
    <mxGraphModel dx="1021" dy="541" grid="1" gridSize="10" guides="1" tooltips="1" connect="1" arrows="1" fold="1" page="1" pageScale="1" pageWidth="850" pageHeight="1100" math="0" shadow="0">
      <root>
        <mxCell id="0" />
        <mxCell id="1" parent="0" />
        <mxCell id="6ZBuI9rRQd1MT6qtGG35-1" value="&lt;b&gt;StudentAllInfo&lt;br&gt;&lt;br&gt;&lt;/b&gt;name&lt;br&gt;id&lt;br&gt;" style="whiteSpace=wrap;html=1;aspect=fixed;" vertex="1" parent="1">
          <mxGeometry x="340" y="10" width="100" height="100" as="geometry" />
        </mxCell>
        <mxCell id="6ZBuI9rRQd1MT6qtGG35-2" value="&lt;b&gt;Public University&lt;br&gt;&lt;br&gt;&lt;/b&gt;name&lt;br&gt;id" style="whiteSpace=wrap;html=1;aspect=fixed;" vertex="1" parent="1">
          <mxGeometry x="40" y="230" width="110" height="110" as="geometry" />
        </mxCell>
        <mxCell id="6ZBuI9rRQd1MT6qtGG35-4" value="&lt;b&gt;Private University&lt;br&gt;&lt;br&gt;&lt;/b&gt;name&lt;br&gt;id" style="whiteSpace=wrap;html=1;aspect=fixed;" vertex="1" parent="1">
          <mxGeometry x="230" y="230" width="110" height="110" as="geometry" />
        </mxCell>
        <mxCell id="6ZBuI9rRQd1MT6qtGG35-5" value="&lt;b&gt;Private University&lt;br&gt;&lt;br&gt;&lt;/b&gt;name&lt;br&gt;id" style="whiteSpace=wrap;html=1;aspect=fixed;" vertex="1" parent="1">
          <mxGeometry x="460" y="230" width="110" height="110" as="geometry" />
        </mxCell>
        <mxCell id="6ZBuI9rRQd1MT6qtGG35-6" value="&lt;b&gt;Medical&lt;br&gt;&lt;br&gt;&lt;/b&gt;name&lt;br&gt;id" style="whiteSpace=wrap;html=1;aspect=fixed;" vertex="1" parent="1">
          <mxGeometry x="660" y="230" width="110" height="110" as="geometry" />
        </mxCell>
        <mxCell id="6ZBuI9rRQd1MT6qtGG35-7" value="&lt;b&gt;Engineering&amp;nbsp;&lt;br&gt;University&lt;/b&gt;&lt;br&gt;&lt;br&gt;name&lt;br&gt;id" style="whiteSpace=wrap;html=1;aspect=fixed;" vertex="1" parent="1">
          <mxGeometry x="870" y="230" width="110" height="110" as="geometry" />
        </mxCell>
        <mxCell id="6ZBuI9rRQd1MT6qtGG35-8" value="&lt;b&gt;Hotel&lt;br&gt;&lt;br&gt;&lt;/b&gt;name&lt;br&gt;id" style="whiteSpace=wrap;html=1;aspect=fixed;" vertex="1" parent="1">
          <mxGeometry x="120" y="530" width="110" height="110" as="geometry" />
        </mxCell>
        <mxCell id="6ZBuI9rRQd1MT6qtGG35-9" value="&lt;b&gt;Admin&lt;br&gt;&lt;br&gt;&lt;/b&gt;name&lt;br&gt;id" style="whiteSpace=wrap;html=1;aspect=fixed;" vertex="1" parent="1">
          <mxGeometry x="335" y="530" width="110" height="110" as="geometry" />
        </mxCell>
        <mxCell id="6ZBuI9rRQd1MT6qtGG35-10" value="&lt;b&gt;Employee&lt;br&gt;&lt;br&gt;&lt;/b&gt;name&lt;br&gt;id" style="whiteSpace=wrap;html=1;aspect=fixed;" vertex="1" parent="1">
          <mxGeometry x="530" y="530" width="110" height="110" as="geometry" />
        </mxCell>
        <mxCell id="6ZBuI9rRQd1MT6qtGG35-12" value="&lt;b&gt;SSC&lt;br&gt;&lt;br&gt;&lt;/b&gt;name&lt;br&gt;id" style="whiteSpace=wrap;html=1;aspect=fixed;" vertex="1" parent="1">
          <mxGeometry x="210" y="100" width="100" height="100" as="geometry" />
        </mxCell>
        <mxCell id="6ZBuI9rRQd1MT6qtGG35-13" value="&lt;b&gt;HSC&lt;br&gt;&lt;br&gt;&lt;/b&gt;name&lt;br&gt;id" style="whiteSpace=wrap;html=1;aspect=fixed;" vertex="1" parent="1">
          <mxGeometry x="470" y="100" width="100" height="100" as="geometry" />
        </mxCell>
        <mxCell id="6ZBuI9rRQd1MT6qtGG35-14" value="" style="endArrow=none;html=1;entryX=0.02;entryY=0.82;entryDx=0;entryDy=0;entryPerimeter=0;exitX=1.02;exitY=0.07;exitDx=0;exitDy=0;exitPerimeter=0;" edge="1" parent="1" source="6ZBuI9rRQd1MT6qtGG35-12" target="6ZBuI9rRQd1MT6qtGG35-1">
          <mxGeometry width="50" height="50" relative="1" as="geometry">
            <mxPoint x="390" y="240" as="sourcePoint" />
            <mxPoint x="440" y="190" as="targetPoint" />
          </mxGeometry>
        </mxCell>
        <mxCell id="6ZBuI9rRQd1MT6qtGG35-15" value="" style="endArrow=none;html=1;entryX=1.023;entryY=0.864;entryDx=0;entryDy=0;entryPerimeter=0;exitX=-0.003;exitY=0.13;exitDx=0;exitDy=0;exitPerimeter=0;" edge="1" parent="1" source="6ZBuI9rRQd1MT6qtGG35-13" target="6ZBuI9rRQd1MT6qtGG35-1">
          <mxGeometry width="50" height="50" relative="1" as="geometry">
            <mxPoint x="380" y="200" as="sourcePoint" />
            <mxPoint x="430" y="150" as="targetPoint" />
          </mxGeometry>
        </mxCell>
        <mxCell id="6ZBuI9rRQd1MT6qtGG35-16" value="&lt;b&gt;Question&amp;nbsp;&lt;br&gt;Bank&lt;/b&gt;&lt;br&gt;&lt;br&gt;name&lt;br&gt;id" style="whiteSpace=wrap;html=1;aspect=fixed;" vertex="1" parent="1">
          <mxGeometry x="10" y="370" width="80" height="80" as="geometry" />
        </mxCell>
        <mxCell id="6ZBuI9rRQd1MT6qtGG35-18" value="&lt;b&gt;Unit&lt;/b&gt;&lt;br&gt;&lt;br&gt;name&lt;br&gt;id" style="whiteSpace=wrap;html=1;aspect=fixed;" vertex="1" parent="1">
          <mxGeometry x="110" y="370" width="80" height="80" as="geometry" />
        </mxCell>
        <mxCell id="6ZBuI9rRQd1MT6qtGG35-19" value="&lt;b&gt;Unit&lt;/b&gt;&lt;br&gt;&lt;br&gt;name&lt;br&gt;id" style="whiteSpace=wrap;html=1;aspect=fixed;" vertex="1" parent="1">
          <mxGeometry x="310" y="370" width="80" height="80" as="geometry" />
        </mxCell>
        <mxCell id="6ZBuI9rRQd1MT6qtGG35-20" value="&lt;b&gt;Question&amp;nbsp;&lt;br&gt;Bank&lt;/b&gt;&lt;br&gt;&lt;br&gt;name&lt;br&gt;id" style="whiteSpace=wrap;html=1;aspect=fixed;" vertex="1" parent="1">
          <mxGeometry x="210" y="370" width="80" height="80" as="geometry" />
        </mxCell>
        <mxCell id="6ZBuI9rRQd1MT6qtGG35-21" value="&lt;b&gt;Unit&lt;/b&gt;&lt;br&gt;&lt;br&gt;name&lt;br&gt;id" style="whiteSpace=wrap;html=1;aspect=fixed;" vertex="1" parent="1">
          <mxGeometry x="510" y="370" width="80" height="80" as="geometry" />
        </mxCell>
        <mxCell id="6ZBuI9rRQd1MT6qtGG35-22" value="&lt;b&gt;Question&amp;nbsp;&lt;br&gt;Bank&lt;/b&gt;&lt;br&gt;&lt;br&gt;name&lt;br&gt;id" style="whiteSpace=wrap;html=1;aspect=fixed;" vertex="1" parent="1">
          <mxGeometry x="410" y="370" width="80" height="80" as="geometry" />
        </mxCell>
        <mxCell id="6ZBuI9rRQd1MT6qtGG35-23" value="&lt;b&gt;Unit&lt;/b&gt;&lt;br&gt;&lt;br&gt;name&lt;br&gt;id" style="whiteSpace=wrap;html=1;aspect=fixed;" vertex="1" parent="1">
          <mxGeometry x="730" y="370" width="80" height="80" as="geometry" />
        </mxCell>
        <mxCell id="6ZBuI9rRQd1MT6qtGG35-24" value="&lt;b&gt;Question&amp;nbsp;&lt;br&gt;Bank&lt;/b&gt;&lt;br&gt;&lt;br&gt;name&lt;br&gt;id" style="whiteSpace=wrap;html=1;aspect=fixed;" vertex="1" parent="1">
          <mxGeometry x="620" y="370" width="80" height="80" as="geometry" />
        </mxCell>
        <mxCell id="6ZBuI9rRQd1MT6qtGG35-25" value="&lt;b&gt;Unit&lt;/b&gt;&lt;br&gt;&lt;br&gt;name&lt;br&gt;id" style="whiteSpace=wrap;html=1;aspect=fixed;" vertex="1" parent="1">
          <mxGeometry x="940" y="370" width="80" height="80" as="geometry" />
        </mxCell>
        <mxCell id="6ZBuI9rRQd1MT6qtGG35-26" value="&lt;b&gt;Question&amp;nbsp;&lt;br&gt;Bank&lt;/b&gt;&lt;br&gt;&lt;br&gt;name&lt;br&gt;id" style="whiteSpace=wrap;html=1;aspect=fixed;" vertex="1" parent="1">
          <mxGeometry x="830" y="370" width="80" height="80" as="geometry" />
        </mxCell>
      </root>
    </mxGraphModel>
  </diagram>
</mxfile>
